# Blender v2.80 (sub 60) OBJ File: ''
# www.blender.org
mtllib AguaProCavalin.mtl
o Cube_Cube.001
v -2.158640 0.022912 0.763947
v -2.592683 0.857034 0.868723
v -2.158640 0.022912 -0.278233
v -2.592683 0.857034 -0.383009
v 2.158640 0.022912 0.763947
v 2.592683 0.857034 0.868723
v 2.158640 0.022912 -0.278233
v 2.592683 0.857034 -0.383009
v -2.437232 0.857034 0.753305
v -2.437232 0.857034 -0.267592
v 2.437232 0.857034 -0.267592
v 2.437232 0.857034 0.753305
v -1.970376 0.097262 0.582250
v -1.970376 0.097262 -0.096536
v 1.970376 0.097262 -0.096536
v 1.970376 0.097262 0.582250
vt 0.375000 0.000000
vt 0.625000 0.000000
vt 0.625000 0.250000
vt 0.375000 0.250000
vt 0.625000 0.500000
vt 0.375000 0.500000
vt 0.625000 0.750000
vt 0.375000 0.750000
vt 0.625000 1.000000
vt 0.375000 1.000000
vt 0.125000 0.500000
vt 0.125000 0.750000
vt 0.625000 0.000000
vt 0.625000 0.250000
vt 0.625000 0.500000
vt 0.625000 0.250000
vt 0.625000 0.500000
vt 0.625000 0.750000
vt 0.625000 1.000000
vt 0.875000 0.500000
vt 0.875000 0.750000
vt 0.625000 0.750000
vt 0.625000 0.000000
vt 0.625000 1.000000
vn -0.8871 -0.4616 0.0000
vn 0.0000 -0.1246 -0.9922
vn 0.8871 -0.4616 0.0000
vn 0.0000 -0.1246 0.9922
vn 0.0000 -1.0000 0.0000
vn 0.0000 1.0000 0.0000
vn 0.0000 0.2196 0.9756
vn -0.8520 0.5235 0.0000
vn 0.8520 0.5235 0.0000
vn 0.0000 0.2196 -0.9756
usemtl None
s off
f 1/1/1 2/2/1 4/3/1 3/4/1
f 3/4/2 4/3/2 8/5/2 7/6/2
f 7/6/3 8/5/3 6/7/3 5/8/3
f 5/8/4 6/7/4 2/9/4 1/10/4
f 3/11/5 7/6/5 5/8/5 1/12/5
f 4/3/6 2/2/6 9/13/6 10/14/6
f 11/15/7 10/14/7 14/16/7 15/17/7
f 2/9/6 6/7/6 12/18/6 9/19/6
f 8/5/6 4/3/6 10/14/6 11/15/6
f 6/7/6 8/5/6 11/15/6 12/18/6
f 15/17/6 14/20/6 13/21/6 16/22/6
f 12/18/8 11/15/8 15/17/8 16/22/8
f 10/14/9 9/13/9 13/23/9 14/16/9
f 9/19/10 12/18/10 16/22/10 13/24/10
