# Blender v2.80 (sub 60) OBJ File: ''
# www.blender.org
mtllib Barril.mtl
o Cylinder
v 0.000000 0.050125 -0.956969
v 0.000000 2.544217 -0.956969
v 0.587785 0.050125 -0.765987
v 0.587785 2.544217 -0.765987
v 0.951057 0.050125 -0.265987
v 0.951057 2.544217 -0.265987
v 0.951056 0.050125 0.352048
v 0.951056 2.544217 0.352048
v 0.587785 0.050125 0.852048
v 0.587785 2.544217 0.852048
v -0.000000 0.050125 1.043031
v -0.000000 2.544217 1.043031
v -0.587785 0.050125 0.852047
v -0.587785 2.544217 0.852047
v -0.951056 0.050125 0.352048
v -0.951056 2.544217 0.352048
v -0.951056 0.050125 -0.265987
v -0.951056 2.544217 -0.265987
v -0.587785 0.050125 -0.765987
v -0.587785 2.544217 -0.765987
v 0.000000 0.474335 -1.056683
v 0.000000 1.006645 -1.121827
v 0.000000 1.587697 -1.121827
v 0.000000 2.120007 -1.056683
v 0.646395 2.120007 -0.846656
v 0.684686 1.587697 -0.899359
v 0.684686 1.006645 -0.899359
v 0.646395 0.474335 -0.846656
v 1.045889 2.120007 -0.296800
v 1.107845 1.587697 -0.316930
v 1.107845 1.006645 -0.316930
v 1.045889 0.474335 -0.296800
v 1.045889 2.120007 0.382861
v 1.107845 1.587697 0.402991
v 1.107845 1.006645 0.402991
v 1.045889 0.474335 0.382861
v 0.646395 2.120007 0.932717
v 0.684686 1.587697 0.985420
v 0.684686 1.006645 0.985420
v 0.646395 0.474335 0.932717
v -0.000000 2.120007 1.142744
v -0.000000 1.587697 1.207888
v -0.000000 1.006645 1.207888
v -0.000000 0.474335 1.142744
v -0.646395 2.120007 0.932717
v -0.684686 1.587697 0.985420
v -0.684686 1.006645 0.985420
v -0.646395 0.474335 0.932717
v -1.045889 2.120007 0.382861
v -1.107845 1.587697 0.402991
v -1.107845 1.006645 0.402991
v -1.045889 0.474335 0.382861
v -1.045889 2.120007 -0.296800
v -1.107845 1.587697 -0.316930
v -1.107845 1.006645 -0.316930
v -1.045889 0.474335 -0.296800
v -0.646395 2.120007 -0.846656
v -0.684686 1.587697 -0.899359
v -0.684686 1.006645 -0.899359
v -0.646395 0.474335 -0.846656
v 0.499527 2.544217 -0.644509
v 0.000000 2.544217 -0.806815
v 0.808251 2.544217 -0.219586
v 0.808251 2.544217 0.305647
v 0.499526 2.544217 0.730570
v -0.000000 2.544217 0.892876
v -0.499527 2.544217 0.730570
v -0.808251 2.544217 0.305647
v -0.808251 2.544217 -0.219586
v -0.499526 2.544217 -0.644509
v 0.420871 2.476398 -0.536248
v 0.000000 2.476398 -0.672997
v 0.680983 2.476398 -0.178234
v 0.680983 2.476398 0.264295
v 0.420871 2.476398 0.622309
v -0.000000 2.476398 0.759058
v -0.420871 2.476398 0.622309
v -0.680983 2.476398 0.264295
v -0.680983 2.476398 -0.178234
v -0.420871 2.476398 -0.536248
v -0.000000 2.476398 0.264295
v -0.000001 2.476398 -0.178234
v 0.000000 0.050125 -0.833287
v 0.515086 0.050125 -0.665925
v 0.833427 0.050125 -0.227766
v 0.833427 0.050125 0.313827
v 0.515086 0.050125 0.751986
v -0.000000 0.050125 0.919348
v -0.515086 0.050125 0.751986
v -0.833427 0.050125 0.313827
v -0.833427 0.050125 -0.227767
v -0.515086 0.050125 -0.665925
v 0.000000 0.160622 -0.681070
v 0.425615 0.160622 -0.542779
v 0.688660 0.160622 -0.180729
v 0.688660 0.160622 0.266790
v 0.425615 0.160622 0.628840
v -0.000000 0.160622 0.767130
v -0.425615 0.160622 0.628840
v -0.688660 0.160622 0.266790
v -0.688660 0.160622 -0.180729
v -0.425615 0.160622 -0.542779
v 0.000000 0.160622 -0.180729
v 0.000000 0.160622 0.266790
vt 1.000000 0.900000
vt 1.000000 1.000000
vt 0.900000 1.000000
vt 0.900000 0.900000
vt 0.800000 1.000000
vt 0.800000 0.900000
vt 0.700000 1.000000
vt 0.700000 0.900000
vt 0.600000 1.000000
vt 0.600000 0.900000
vt 0.500000 1.000000
vt 0.500000 0.900000
vt 0.400000 1.000000
vt 0.400000 0.900000
vt 0.300000 1.000000
vt 0.300000 0.900000
vt 0.200000 1.000000
vt 0.200000 0.900000
vt 0.400000 1.000000
vt 0.300000 1.000000
vt 0.100000 1.000000
vt 0.100000 0.900000
vt -0.000000 1.000000
vt -0.000000 0.900000
vt 0.300000 0.500000
vt 0.200000 0.500000
vt 0.200000 0.500000
vt 0.300000 0.500000
vt 0.100000 0.500000
vt 0.100000 0.600000
vt -0.000000 0.600000
vt -0.000000 0.500000
vt 0.100000 0.700000
vt -0.000000 0.700000
vt 0.100000 0.800000
vt -0.000000 0.800000
vt 0.200000 0.600000
vt 0.200000 0.700000
vt 0.200000 0.800000
vt 0.300000 0.600000
vt 0.300000 0.700000
vt 0.300000 0.800000
vt 0.400000 0.500000
vt 0.400000 0.600000
vt 0.400000 0.700000
vt 0.400000 0.800000
vt 0.500000 0.500000
vt 0.500000 0.600000
vt 0.500000 0.700000
vt 0.500000 0.800000
vt 0.600000 0.500000
vt 0.600000 0.600000
vt 0.600000 0.700000
vt 0.600000 0.800000
vt 0.700000 0.500000
vt 0.700000 0.600000
vt 0.700000 0.700000
vt 0.700000 0.800000
vt 0.800000 0.500000
vt 0.800000 0.600000
vt 0.800000 0.700000
vt 0.800000 0.800000
vt 0.900000 0.500000
vt 0.900000 0.600000
vt 0.900000 0.700000
vt 0.900000 0.800000
vt 1.000000 0.500000
vt 1.000000 0.600000
vt 1.000000 0.700000
vt 1.000000 0.800000
vt 0.700000 1.000000
vt 0.800000 1.000000
vt 0.800000 1.000000
vt 0.700000 1.000000
vt 0.500000 1.000000
vt 0.600000 1.000000
vt 1.000000 1.000000
vt 0.900000 1.000000
vt 0.100000 1.000000
vt -0.000000 1.000000
vt 0.200000 1.000000
vt 0.391068 0.444164
vt 0.250000 0.490000
vt 0.250000 0.324164
vt 0.478254 0.324164
vt 0.100000 1.000000
vt -0.000000 1.000000
vt 0.400000 1.000000
vt 0.300000 1.000000
vt 0.600000 1.000000
vt 1.000000 1.000000
vt 0.900000 1.000000
vt 0.200000 1.000000
vt 0.500000 1.000000
vt 0.478254 0.175836
vt 0.250000 0.175836
vt 0.250000 0.010000
vt 0.391068 0.055836
vt 0.108932 0.444164
vt 0.021746 0.324164
vt 0.021746 0.175836
vt 0.108932 0.055836
vt 0.900000 0.500000
vt 0.800000 0.500000
vt 0.800000 0.500000
vt 0.900000 0.500000
vt 0.400000 0.500000
vt 0.500000 0.500000
vt 0.600000 0.500000
vt 0.700000 0.500000
vt 1.000000 0.500000
vt -0.000000 0.500000
vt 0.100000 0.500000
vt 0.750000 0.490000
vt 0.750000 0.324164
vt 0.521746 0.324164
vt 0.608932 0.444164
vt 0.100000 0.500000
vt 0.200000 0.500000
vt 0.400000 0.500000
vt 0.500000 0.500000
vt 0.700000 0.500000
vt -0.000000 0.500000
vt 0.300000 0.500000
vt 0.600000 0.500000
vt 1.000000 0.500000
vt 0.521746 0.175836
vt 0.750000 0.175836
vt 0.750000 0.010000
vt 0.608932 0.055836
vt 0.978254 0.324164
vt 0.978254 0.175836
vt 0.891068 0.444164
vt 0.891068 0.055836
vn 0.3016 0.2182 -0.9281
vn 0.7895 0.2182 -0.5736
vn 0.9759 0.2182 0.0000
vn 0.7895 0.2182 0.5736
vn 0.3016 0.2182 0.9281
vn -0.3016 0.2182 0.9281
vn -0.7895 0.2182 0.5736
vn -0.9759 0.2182 0.0000
vn 0.0000 1.0000 0.0000
vn -0.7895 0.2182 -0.5736
vn -0.3016 0.2182 -0.9281
vn 0.0000 -1.0000 0.0000
vn -0.3016 -0.2182 -0.9281
vn -0.3069 -0.1156 -0.9447
vn -0.3090 0.0000 -0.9511
vn -0.3069 0.1156 -0.9447
vn -0.7895 -0.2182 -0.5736
vn -0.8036 -0.1156 -0.5838
vn -0.8090 0.0000 -0.5878
vn -0.8036 0.1156 -0.5838
vn -0.9759 -0.2182 0.0000
vn -0.9933 -0.1156 0.0000
vn -1.0000 0.0000 0.0000
vn -0.9933 0.1156 0.0000
vn -0.7895 -0.2182 0.5736
vn -0.8036 -0.1156 0.5838
vn -0.8090 0.0000 0.5878
vn -0.8036 0.1156 0.5838
vn -0.3016 -0.2182 0.9281
vn -0.3069 -0.1156 0.9447
vn -0.3090 0.0000 0.9511
vn -0.3069 0.1156 0.9447
vn 0.3016 -0.2182 0.9281
vn 0.3069 -0.1156 0.9447
vn 0.3090 0.0000 0.9511
vn 0.3069 0.1156 0.9447
vn 0.7895 -0.2182 0.5736
vn 0.8036 -0.1156 0.5838
vn 0.8090 0.0000 0.5878
vn 0.8036 0.1156 0.5838
vn 0.9759 -0.2182 0.0000
vn 0.9933 -0.1156 0.0000
vn 1.0000 0.0000 0.0000
vn 0.9933 0.1156 0.0000
vn 0.7895 -0.2182 -0.5736
vn 0.8036 -0.1156 -0.5838
vn 0.8090 0.0000 -0.5878
vn 0.8036 0.1156 -0.5838
vn 0.3016 -0.2182 -0.9281
vn 0.3069 -0.1156 -0.9447
vn 0.3090 0.0000 -0.9511
vn 0.3069 0.1156 -0.9447
vn -0.4703 0.8825 0.0000
vn 0.1453 0.8825 0.4473
vn 0.3805 0.8825 -0.2764
vn -0.3805 0.8825 -0.2764
vn -0.1453 0.8825 0.4473
vn 0.4703 0.8825 0.0000
vn -0.1453 0.8825 -0.4473
vn -0.3805 0.8825 0.2764
vn 0.3805 0.8825 0.2764
vn 0.1453 0.8825 -0.4473
vn -0.4909 -0.7949 0.3566
vn 0.4909 -0.7949 0.3566
vn 0.1875 -0.7949 -0.5770
vn -0.6067 -0.7949 0.0000
vn 0.1875 -0.7949 0.5770
vn 0.4909 -0.7949 -0.3566
vn -0.4909 -0.7949 -0.3566
vn -0.1875 -0.7949 0.5770
vn 0.6067 -0.7949 0.0000
vn -0.1875 -0.7949 -0.5770
usemtl None
s off
f 24/1/1 2/2/1 4/3/1 25/4/1
f 25/4/2 4/3/2 6/5/2 29/6/2
f 29/6/3 6/5/3 8/7/3 33/8/3
f 33/8/4 8/7/4 10/9/4 37/10/4
f 37/10/5 10/9/5 12/11/5 41/12/5
f 41/12/6 12/11/6 14/13/6 45/14/6
f 45/14/7 14/13/7 16/15/7 49/16/7
f 49/16/8 16/15/8 18/17/8 53/18/8
f 16/15/9 14/13/9 67/19/9 68/20/9
f 53/18/10 18/17/10 20/21/10 57/22/10
f 57/22/11 20/21/11 2/23/11 24/24/11
f 15/25/12 17/26/12 91/27/12 90/28/12
f 19/29/13 60/30/13 21/31/13 1/32/13
f 60/30/14 59/33/14 22/34/14 21/31/14
f 59/33/15 58/35/15 23/36/15 22/34/15
f 58/35/16 57/22/16 24/24/16 23/36/16
f 17/26/17 56/37/17 60/30/17 19/29/17
f 56/37/18 55/38/18 59/33/18 60/30/18
f 55/38/19 54/39/19 58/35/19 59/33/19
f 54/39/20 53/18/20 57/22/20 58/35/20
f 15/25/21 52/40/21 56/37/21 17/26/21
f 52/40/22 51/41/22 55/38/22 56/37/22
f 51/41/23 50/42/23 54/39/23 55/38/23
f 50/42/24 49/16/24 53/18/24 54/39/24
f 13/43/25 48/44/25 52/40/25 15/25/25
f 48/44/26 47/45/26 51/41/26 52/40/26
f 47/45/27 46/46/27 50/42/27 51/41/27
f 46/46/28 45/14/28 49/16/28 50/42/28
f 11/47/29 44/48/29 48/44/29 13/43/29
f 44/48/30 43/49/30 47/45/30 48/44/30
f 43/49/31 42/50/31 46/46/31 47/45/31
f 42/50/32 41/12/32 45/14/32 46/46/32
f 9/51/33 40/52/33 44/48/33 11/47/33
f 40/52/34 39/53/34 43/49/34 44/48/34
f 39/53/35 38/54/35 42/50/35 43/49/35
f 38/54/36 37/10/36 41/12/36 42/50/36
f 7/55/37 36/56/37 40/52/37 9/51/37
f 36/56/38 35/57/38 39/53/38 40/52/38
f 35/57/39 34/58/39 38/54/39 39/53/39
f 34/58/40 33/8/40 37/10/40 38/54/40
f 5/59/41 32/60/41 36/56/41 7/55/41
f 32/60/42 31/61/42 35/57/42 36/56/42
f 31/61/43 30/62/43 34/58/43 35/57/43
f 30/62/44 29/6/44 33/8/44 34/58/44
f 3/63/45 28/64/45 32/60/45 5/59/45
f 28/64/46 27/65/46 31/61/46 32/60/46
f 27/65/47 26/66/47 30/62/47 31/61/47
f 26/66/48 25/4/48 29/6/48 30/62/48
f 1/67/49 21/68/49 28/64/49 3/63/49
f 21/68/50 22/69/50 27/65/50 28/64/50
f 22/69/51 23/70/51 26/66/51 27/65/51
f 23/70/52 24/1/52 25/4/52 26/66/52
f 64/71/53 63/72/53 73/73/53 74/74/53
f 14/13/9 12/11/9 66/75/9 67/19/9
f 12/11/9 10/9/9 65/76/9 66/75/9
f 10/9/9 8/7/9 64/71/9 65/76/9
f 4/3/9 2/2/9 62/77/9 61/78/9
f 8/7/9 6/5/9 63/72/9 64/71/9
f 6/5/9 4/3/9 61/78/9 63/72/9
f 2/23/9 20/21/9 70/79/9 62/80/9
f 20/21/9 18/17/9 69/81/9 70/79/9
f 18/17/9 16/15/9 68/20/9 69/81/9
f 71/82/9 72/83/9 82/84/9 73/85/9
f 62/80/54 70/79/54 80/86/54 72/87/54
f 68/20/55 67/19/55 77/88/55 78/89/55
f 65/76/56 64/71/56 74/74/56 75/90/56
f 61/78/57 62/77/57 72/91/57 71/92/57
f 69/81/58 68/20/58 78/89/58 79/93/58
f 66/75/59 65/76/59 75/90/59 76/94/59
f 63/72/60 61/78/60 71/92/60 73/73/60
f 70/79/61 69/81/61 79/93/61 80/86/61
f 67/19/62 66/75/62 76/94/62 77/88/62
f 74/95/9 81/96/9 76/97/9 75/98/9
f 73/85/9 82/84/9 81/96/9 74/95/9
f 82/84/9 72/83/9 80/99/9 79/100/9
f 76/97/9 81/96/9 78/101/9 77/102/9
f 81/96/9 82/84/9 79/100/9 78/101/9
f 84/103/63 85/104/63 95/105/63 94/106/63
f 13/43/12 15/25/12 90/28/12 89/107/12
f 11/47/12 13/43/12 89/107/12 88/108/12
f 9/51/12 11/47/12 88/108/12 87/109/12
f 7/55/12 9/51/12 87/109/12 86/110/12
f 1/67/12 3/63/12 84/103/12 83/111/12
f 5/59/12 7/55/12 86/110/12 85/104/12
f 3/63/12 5/59/12 85/104/12 84/103/12
f 19/29/12 1/32/12 83/112/12 92/113/12
f 17/26/12 19/29/12 92/113/12 91/27/12
f 93/114/12 103/115/12 101/116/12 102/117/12
f 91/27/64 92/113/64 102/118/64 101/119/64
f 88/108/65 89/107/65 99/120/65 98/121/65
f 85/104/66 86/110/66 96/122/66 95/105/66
f 92/113/67 83/112/67 93/123/67 102/118/67
f 89/107/68 90/28/68 100/124/68 99/120/68
f 86/110/69 87/109/69 97/125/69 96/122/69
f 83/111/70 84/103/70 94/106/70 93/126/70
f 90/28/71 91/27/71 101/119/71 100/124/71
f 87/109/72 88/108/72 98/121/72 97/125/72
f 100/127/12 104/128/12 98/129/12 99/130/12
f 101/116/12 103/115/12 104/128/12 100/127/12
f 104/128/12 103/115/12 95/131/12 96/132/12
f 103/115/12 93/114/12 94/133/12 95/131/12
f 98/129/12 104/128/12 96/132/12 97/134/12
